<svg xmlns="http://www.w3.org/2000/svg" viewBox="0 0 234.16 89.99"><defs><style>.cls-1{fill:#58585a;}.cls-2{fill:#bcbdc0;}.cls-3{fill:#0077a4;}.cls-4{fill:#0399d2;}</style></defs><path class="cls-1" d="M140.07,37.14h3.55c.07.23.15.53.22.83a3.38,3.38,0,0,0,2.26,2.34,6.48,6.48,0,0,0,4.3-.08,2.58,2.58,0,0,0,1.88-2.18,2.14,2.14,0,0,0-1.51-2.49,11.68,11.68,0,0,0-2.41-.45c-1.05-.15-2.18-.23-3.24-.45a5.06,5.06,0,0,1-4.29-4,5.28,5.28,0,0,1,2.11-5.72,9.16,9.16,0,0,1,9.87-.3,5.88,5.88,0,0,1,2.71,4.06v.68h-3.39c-.08-.07-.08-.07-.08-.15a3.28,3.28,0,0,0-2.26-2.56,5,5,0,0,0-4.29.38,2.25,2.25,0,0,0-1.13,1.58,2.07,2.07,0,0,0,1.73,2.64,14.63,14.63,0,0,0,1.73.22c1.06.15,2.11.23,3.17.38a7.79,7.79,0,0,1,1.88.6c4,1.88,3.84,7.16,1.21,9.34a7.33,7.33,0,0,1-2,1.13,10.57,10.57,0,0,1-7.31.15,6.4,6.4,0,0,1-4.44-4.89A2.21,2.21,0,0,1,140.07,37.14Z"/><path class="cls-1" d="M97.06,32.17v3.16H88.17v7.84H84.7V23.81c.76-.23,12.36-.23,13.49-.08v3.09h-10v5.27C91.18,32.17,94,32.17,97.06,32.17Z"/><path class="cls-1" d="M170.28,37.22h-9.49A3.24,3.24,0,0,0,163,40.76,2.94,2.94,0,0,0,166.82,39H170a5.3,5.3,0,0,1-3.09,4c-3.16,1.43-7.76.68-9.26-4.07a9.37,9.37,0,0,1,.15-6.25,6.47,6.47,0,0,1,9.42-3.32,5.91,5.91,0,0,1,2.11,2.19A8.58,8.58,0,0,1,170.28,37.22Zm-9.49-2.56h6.1a3.06,3.06,0,1,0-6.1,0Z"/><path class="cls-1" d="M231.53,39a5.44,5.44,0,0,1-3.46,4.14c-4.3,1.51-8.36-.68-9.19-5.27a9.93,9.93,0,0,1,.37-5.13,6.42,6.42,0,0,1,9.19-3.54,5.52,5.52,0,0,1,1.74,1.43c1.58,1.81,1.8,4.07,1.58,6.48h-9.57a3.28,3.28,0,0,0,2.19,3.62c1.8.45,3,0,3.76-1.73h3.39Zm-9.34-4.37h6.1a2.86,2.86,0,0,0-2.78-3.39A3.14,3.14,0,0,0,222.19,34.66Z"/><path class="cls-1" d="M127.87,33.15h-3.09c-.07-.08-.15-.08-.15-.15a2.9,2.9,0,0,0-4.14-1.58,1.56,1.56,0,0,0-1,1.65,1.36,1.36,0,0,0,1.28,1.21c.9.15,1.73.22,2.64.38a16.72,16.72,0,0,1,1.95.37c3.7,1.28,3.24,5.5,1.29,7.16s-7,2-9.27-.15a4.63,4.63,0,0,1-1.58-3.32c.22,0,.37-.07.52-.07h2.41a1.36,1.36,0,0,0,.23.3,2.5,2.5,0,0,0,2.79,2,5.55,5.55,0,0,0,2-.3,1.5,1.5,0,0,0,1.2-1.73,1.53,1.53,0,0,0-1.43-1.36c-1-.15-2-.22-3.09-.37l-1.2-.23a3.91,3.91,0,0,1-2.94-2.94,3.81,3.81,0,0,1,1.28-4,6.65,6.65,0,0,1,5.27-1.51,5.87,5.87,0,0,1,2.72.91A4.45,4.45,0,0,1,127.87,33.15Z"/><path class="cls-1" d="M213.83,38.27h2.41a2.63,2.63,0,0,1,.75.08,4.39,4.39,0,0,1-1.05,3.09c-2.64,3.24-8.36,2.86-10.4-.83a9.08,9.08,0,0,1,0-9c2-3.69,7.69-4.14,10.4-.83A4.93,4.93,0,0,1,217,33.9h-3.16c-.08-.15-.08-.3-.15-.45a2.4,2.4,0,0,0-2.19-1.88,2.71,2.71,0,0,0-2.71,1.13,1.27,1.27,0,0,0-.3.52,7.92,7.92,0,0,0,0,5.73,2.79,2.79,0,0,0,3.77,1.51C213,40.08,213.38,39.63,213.83,38.27Z"/><path class="cls-1" d="M192.89,29h3.46c-.75,2.48-1.73,4.82-2.56,7.23s-1.73,4.74-2.56,7.15H188c-.53,0-.6-.45-.75-.82-.91-2.41-1.81-4.75-2.64-7.16-.68-1.81-1.36-3.62-2-5.43-.08-.3-.23-.6-.3-1h3.54c1.13,3.23,2.33,6.55,3.46,9.79h.23C190.78,35.56,191.76,32.24,192.89,29Z"/><path class="cls-1" d="M138.79,40.31v2.78a7.58,7.58,0,0,1-4.52.15,3.46,3.46,0,0,1-2.56-2.86,13.3,13.3,0,0,1-.15-1.66V31.79c-.9-.07-1.66-.07-2.56-.15V28.93h2.56V25.24c1.13-.3,2.19-.53,3.39-.83.15,1.51,0,2.94.15,4.44h3.47a9.22,9.22,0,0,1,.07,2.87h-3.46a2.42,2.42,0,0,0-.08.68v6.17c0,1.36.45,1.81,1.81,1.81C137.44,40.38,138.12,40.31,138.79,40.31Z"/><path class="cls-1" d="M176,43.24H172.7c-.23-.67-.31-12.8-.08-14.23h2.79c.07.52.22,1.13.37,1.88a4.79,4.79,0,0,1,5.13-2A22.38,22.38,0,0,1,181,32h-.9c-2.41-.08-4,1.28-4,3.77-.08,2,0,4.06,0,6A8.17,8.17,0,0,0,176,43.24Z"/><path class="cls-1" d="M106.85,43.24V29h2.79c.07.6.23,1.13.38,1.88,1.28-2,3-2.34,5.12-2.11a23.8,23.8,0,0,1,0,3.16H114a3.41,3.41,0,0,0-3.62,3,11.9,11.9,0,0,0-.15,1.58v6.7Z"/><path class="cls-1" d="M103.76,43.24h-3.39V29c1.13-.08,2.26,0,3.39-.08Z"/><path class="cls-1" d="M198.39,43.24V29h3.31c.23.75.3,12.73.08,14.23Z"/><path class="cls-1" d="M201.93,26.82h-3.62c-.08-1.13,0-2.26,0-3.39h3.62A27.39,27.39,0,0,1,201.93,26.82Z"/><path class="cls-1" d="M100.22,23.43h3.54a25.59,25.59,0,0,1,.08,3.39H100.3C100.15,25.69,100.3,24.56,100.22,23.43Z"/><polygon class="cls-2" points="44.17 1.21 75.96 22.6 57.36 33.22 44.17 24.64 44.17 1.21"/><polygon class="cls-3" points="75.96 22.6 57.28 33.22 76.04 45.88 75.96 22.6"/><path class="cls-4" d="M57.28,33.22C57.28,33.07,76,45.73,76,45.73L1.83,88.14V64.79Z"/></svg>